<svg width="22" height="22" viewBox="0 0 22 22" fill="none" xmlns="http://www.w3.org/2000/svg">
<path d="M10.0833 3.66668H3.66666C3.18043 3.66668 2.71412 3.85984 2.3703 4.20365C2.02648 4.54747 1.83333 5.01378 1.83333 5.50001V18.3333C1.83333 18.8196 2.02648 19.2859 2.3703 19.6297C2.71412 19.9735 3.18043 20.1667 3.66666 20.1667H16.5C16.9862 20.1667 17.4525 19.9735 17.7964 19.6297C18.1402 19.2859 18.3333 18.8196 18.3333 18.3333V11.9167M16.9583 2.29168C17.323 1.92701 17.8176 1.72214 18.3333 1.72214C18.8491 1.72214 19.3437 1.92701 19.7083 2.29168C20.073 2.65635 20.2779 3.15096 20.2779 3.66668C20.2779 4.18241 20.073 4.67701 19.7083 5.04168L11 13.75L7.33333 14.6667L8.25 11L16.9583 2.29168Z" stroke="#337ECA" stroke-width="1.5" stroke-linecap="round" stroke-linejoin="round"/>
</svg>
