<svg width="28" height="29" viewBox="0 0 28 29" fill="none" xmlns="http://www.w3.org/2000/svg">
<path d="M12.375 7.57501H15.125V13.075H20.625V15.825H15.125V21.325H12.375V15.825H6.875V13.075H12.375V7.57501ZM13.75 0.700012C11.8479 0.700012 10.0604 1.05522 8.3875 1.76564C6.71458 2.49897 5.25938 3.48439 4.02188 4.72189C2.78438 5.95939 1.79896 7.4146 1.06563 9.08751C0.355208 10.7604 0 12.5479 0 14.45C0 16.3521 0.355208 18.1396 1.06563 19.8125C1.79896 21.4854 2.78438 22.9406 4.02188 24.1781C5.25938 25.4156 6.71458 26.3896 8.3875 27.1C10.0604 27.8333 11.8479 28.2 13.75 28.2C15.6521 28.2 17.4396 27.8333 19.1125 27.1C20.7854 26.3896 22.2406 25.4156 23.4781 24.1781C24.7156 22.9406 25.6896 21.4854 26.4 19.8125C27.1333 18.1396 27.5 16.3521 27.5 14.45C27.5 12.5479 27.1333 10.7604 26.4 9.08751C25.6896 7.4146 24.7156 5.95939 23.4781 4.72189C22.2406 3.48439 20.7854 2.49897 19.1125 1.76564C17.4396 1.05522 15.6521 0.700012 13.75 0.700012ZM13.75 3.45001C16.8208 3.45001 19.4219 4.51564 21.5531 6.64689C23.6844 8.77814 24.75 11.3792 24.75 14.45C24.75 17.5208 23.6844 20.1219 21.5531 22.2531C19.4219 24.3844 16.8208 25.45 13.75 25.45C10.6792 25.45 8.07812 24.3844 5.94687 22.2531C3.81562 20.1219 2.75 17.5208 2.75 14.45C2.75 11.3792 3.81562 8.77814 5.94687 6.64689C8.07812 4.51564 10.6792 3.45001 13.75 3.45001Z" fill="#E6F0FD"/>
</svg>
