<svg width="115" height="20" viewBox="0 0 115 20" fill="none" xmlns="http://www.w3.org/2000/svg">
<path d="M26.8587 9.988C27.4094 10.0907 27.862 10.366 28.2167 10.814C28.5714 11.262 28.7487 11.7753 28.7487 12.354C28.7487 12.8767 28.618 13.3387 28.3567 13.74C28.1047 14.132 27.736 14.44 27.2507 14.664C26.7654 14.888 26.1914 15 25.5287 15H21.3147V5.228H25.3467C26.0094 5.228 26.5787 5.33533 27.0547 5.55C27.54 5.76467 27.904 6.06333 28.1467 6.446C28.3987 6.82867 28.5247 7.26267 28.5247 7.748C28.5247 8.31733 28.3707 8.79333 28.0627 9.176C27.764 9.55867 27.3627 9.82933 26.8587 9.988ZM23.2747 9.26H25.0667C25.5334 9.26 25.8927 9.15733 26.1447 8.952C26.3967 8.73733 26.5227 8.434 26.5227 8.042C26.5227 7.65 26.3967 7.34667 26.1447 7.132C25.8927 6.91733 25.5334 6.81 25.0667 6.81H23.2747V9.26ZM25.2487 13.404C25.7247 13.404 26.0934 13.292 26.3547 13.068C26.6254 12.844 26.7607 12.5267 26.7607 12.116C26.7607 11.696 26.6207 11.3693 26.3407 11.136C26.0607 10.8933 25.6827 10.772 25.2067 10.772H23.2747V13.404H25.2487ZM30.1068 11.094C30.1068 10.31 30.2608 9.61467 30.5688 9.008C30.8861 8.40133 31.3108 7.93467 31.8428 7.608C32.3841 7.28133 32.9861 7.118 33.6488 7.118C34.2275 7.118 34.7315 7.23467 35.1608 7.468C35.5995 7.70133 35.9495 7.99533 36.2108 8.35V7.244H38.1848V15H36.2108V13.866C35.9588 14.23 35.6088 14.5333 35.1608 14.776C34.7221 15.0093 34.2135 15.126 33.6348 15.126C32.9815 15.126 32.3841 14.958 31.8428 14.622C31.3108 14.286 30.8861 13.8147 30.5688 13.208C30.2608 12.592 30.1068 11.8873 30.1068 11.094ZM36.2108 11.122C36.2108 10.646 36.1175 10.24 35.9308 9.904C35.7441 9.55867 35.4921 9.29733 35.1748 9.12C34.8575 8.93333 34.5168 8.84 34.1528 8.84C33.7888 8.84 33.4528 8.92867 33.1448 9.106C32.8368 9.28333 32.5848 9.54467 32.3888 9.89C32.2021 10.226 32.1088 10.6273 32.1088 11.094C32.1088 11.5607 32.2021 11.9713 32.3888 12.326C32.5848 12.6713 32.8368 12.9373 33.1448 13.124C33.4621 13.3107 33.7981 13.404 34.1528 13.404C34.5168 13.404 34.8575 13.3153 35.1748 13.138C35.4921 12.9513 35.7441 12.69 35.9308 12.354C36.1175 12.0087 36.2108 11.598 36.2108 11.122ZM42.3591 8.378C42.6111 8.00467 42.9564 7.70133 43.3951 7.468C43.8431 7.23467 44.3517 7.118 44.9211 7.118C45.5837 7.118 46.1811 7.28133 46.7131 7.608C47.2544 7.93467 47.6791 8.40133 47.9871 9.008C48.3044 9.60533 48.4631 10.3007 48.4631 11.094C48.4631 11.8873 48.3044 12.592 47.9871 13.208C47.6791 13.8147 47.2544 14.286 46.7131 14.622C46.1811 14.958 45.5837 15.126 44.9211 15.126C44.3424 15.126 43.8337 15.014 43.3951 14.79C42.9657 14.5567 42.6204 14.258 42.3591 13.894V15H40.3991V4.64H42.3591V8.378ZM46.4611 11.094C46.4611 10.6273 46.3631 10.226 46.1671 9.89C45.9804 9.54467 45.7284 9.28333 45.4111 9.106C45.1031 8.92867 44.7671 8.84 44.4031 8.84C44.0484 8.84 43.7124 8.93333 43.3951 9.12C43.0871 9.29733 42.8351 9.55867 42.6391 9.904C42.4524 10.2493 42.3591 10.6553 42.3591 11.122C42.3591 11.5887 42.4524 11.9947 42.6391 12.34C42.8351 12.6853 43.0871 12.9513 43.3951 13.138C43.7124 13.3153 44.0484 13.404 44.4031 13.404C44.7671 13.404 45.1031 13.3107 45.4111 13.124C45.7284 12.9373 45.9804 12.6713 46.1671 12.326C46.3631 11.9807 46.4611 11.57 46.4611 11.094ZM57.6074 7.244L52.8053 18.668H50.7193L52.3993 14.804L49.2913 7.244H51.4893L53.4913 12.662L55.5213 7.244H57.6074ZM75.6619 5.228L72.9319 15H70.6219L68.7879 8.042L66.8699 15L64.5739 15.014L61.9419 5.228H64.0419L65.7639 12.816L67.7519 5.228H69.9359L71.8119 12.774L73.5479 5.228H75.6619ZM84.4516 10.954C84.4516 11.234 84.433 11.486 84.3956 11.71H78.7256C78.7723 12.27 78.9683 12.7087 79.3136 13.026C79.659 13.3433 80.0836 13.502 80.5876 13.502C81.3156 13.502 81.8336 13.1893 82.1416 12.564H84.2556C84.0316 13.3107 83.6023 13.9267 82.9676 14.412C82.333 14.888 81.5536 15.126 80.6296 15.126C79.883 15.126 79.211 14.9627 78.6136 14.636C78.0256 14.3 77.5636 13.8287 77.2276 13.222C76.901 12.6153 76.7376 11.9153 76.7376 11.122C76.7376 10.3193 76.901 9.61467 77.2276 9.008C77.5543 8.40133 78.0116 7.93467 78.5996 7.608C79.1876 7.28133 79.8643 7.118 80.6296 7.118C81.367 7.118 82.025 7.27667 82.6036 7.594C83.1916 7.91133 83.6443 8.364 83.9616 8.952C84.2883 9.53067 84.4516 10.198 84.4516 10.954ZM82.4216 10.394C82.4123 9.89 82.2303 9.48867 81.8756 9.19C81.521 8.882 81.087 8.728 80.5736 8.728C80.0883 8.728 79.6776 8.87733 79.3416 9.176C79.015 9.46533 78.8143 9.87133 78.7396 10.394H82.4216ZM87.1763 6.32C86.8309 6.32 86.5416 6.21267 86.3083 5.998C86.0843 5.774 85.9723 5.49867 85.9723 5.172C85.9723 4.84533 86.0843 4.57467 86.3083 4.36C86.5416 4.136 86.8309 4.024 87.1763 4.024C87.5216 4.024 87.8063 4.136 88.0303 4.36C88.2636 4.57467 88.3803 4.84533 88.3803 5.172C88.3803 5.49867 88.2636 5.774 88.0303 5.998C87.8063 6.21267 87.5216 6.32 87.1763 6.32ZM88.1423 7.244V15H86.1823V7.244H88.1423ZM93.4168 7.118C93.9954 7.118 94.5041 7.23467 94.9428 7.468C95.3814 7.692 95.7268 7.986 95.9788 8.35V7.244H97.9528V15.056C97.9528 15.7747 97.8081 16.414 97.5188 16.974C97.2294 17.5433 96.7954 17.9913 96.2168 18.318C95.6381 18.654 94.9381 18.822 94.1168 18.822C93.0154 18.822 92.1101 18.5653 91.4008 18.052C90.7008 17.5387 90.3041 16.8387 90.2108 15.952H92.1568C92.2594 16.3067 92.4788 16.5867 92.8148 16.792C93.1601 17.0067 93.5754 17.114 94.0608 17.114C94.6301 17.114 95.0921 16.9413 95.4468 16.596C95.8014 16.26 95.9788 15.7467 95.9788 15.056V13.852C95.7268 14.216 95.3768 14.5193 94.9288 14.762C94.4901 15.0047 93.9861 15.126 93.4168 15.126C92.7634 15.126 92.1661 14.958 91.6248 14.622C91.0834 14.286 90.6541 13.8147 90.3368 13.208C90.0288 12.592 89.8748 11.8873 89.8748 11.094C89.8748 10.31 90.0288 9.61467 90.3368 9.008C90.6541 8.40133 91.0788 7.93467 91.6108 7.608C92.1521 7.28133 92.7541 7.118 93.4168 7.118ZM95.9788 11.122C95.9788 10.646 95.8854 10.24 95.6988 9.904C95.5121 9.55867 95.2601 9.29733 94.9428 9.12C94.6254 8.93333 94.2848 8.84 93.9208 8.84C93.5568 8.84 93.2208 8.92867 92.9128 9.106C92.6048 9.28333 92.3528 9.54467 92.1568 9.89C91.9701 10.226 91.8768 10.6273 91.8768 11.094C91.8768 11.5607 91.9701 11.9713 92.1568 12.326C92.3528 12.6713 92.6048 12.9373 92.9128 13.124C93.2301 13.3107 93.5661 13.404 93.9208 13.404C94.2848 13.404 94.6254 13.3153 94.9428 13.138C95.2601 12.9513 95.5121 12.69 95.6988 12.354C95.8854 12.0087 95.9788 11.598 95.9788 11.122ZM104.535 7.132C105.123 7.132 105.646 7.26267 106.103 7.524C106.56 7.776 106.915 8.154 107.167 8.658C107.428 9.15267 107.559 9.75 107.559 10.45V15H105.599V10.716C105.599 10.1 105.445 9.62867 105.137 9.302C104.829 8.966 104.409 8.798 103.877 8.798C103.336 8.798 102.906 8.966 102.589 9.302C102.281 9.62867 102.127 10.1 102.127 10.716V15H100.167V4.64H102.127V8.21C102.379 7.874 102.715 7.61267 103.135 7.426C103.555 7.23 104.022 7.132 104.535 7.132ZM112.005 8.854V12.606C112.005 12.8673 112.066 13.0587 112.187 13.18C112.318 13.292 112.532 13.348 112.831 13.348H113.741V15H112.509C110.857 15 110.031 14.1973 110.031 12.592V8.854H109.107V7.244H110.031V5.326H112.005V7.244H113.741V8.854H112.005Z" fill="#E6F0FD"/>
<g clip-path="url(#clip0_115_210)">
<path d="M6.06099 3.3628C6.06099 3.00148 6.13525 2.6437 6.27953 2.30989C6.42381 1.97608 6.63529 1.67277 6.90189 1.41728C7.16849 1.16179 7.48498 0.959125 7.83331 0.820856C8.18163 0.682586 8.55497 0.61142 8.93199 0.61142C9.30902 0.61142 9.68235 0.682586 10.0307 0.820856C10.379 0.959125 10.6955 1.16179 10.9621 1.41728C11.2287 1.67277 11.4402 1.97608 11.5844 2.30989C11.7287 2.6437 11.803 3.00148 11.803 3.3628C11.803 3.72411 11.7287 4.08189 11.5844 4.4157C11.4402 4.74951 11.2287 5.05282 10.9621 5.30831C10.6955 5.5638 10.379 5.76647 10.0307 5.90473C9.68235 6.043 9.30902 6.11417 8.93199 6.11417C8.55497 6.11417 8.18163 6.043 7.83331 5.90473C7.48498 5.76647 7.16849 5.5638 6.90189 5.30831C6.63529 5.05282 6.42381 4.74951 6.27953 4.4157C6.13525 4.08189 6.06099 3.72411 6.06099 3.3628ZM1.58303 5.52186C2.1014 4.83784 3.09828 4.68881 3.81204 5.18558L5.25552 6.1906C6.32417 6.93576 7.61213 7.337 8.93199 7.337C10.2519 7.337 11.5398 6.93576 12.6085 6.1906L14.0519 5.18176C14.7657 4.68498 15.7626 4.83784 16.281 5.51804C16.7993 6.19824 16.6398 7.1574 15.9301 7.65418L14.4866 8.66301C13.9443 9.04133 13.3661 9.3585 12.76 9.61835V11.0055H5.10399V9.61835C4.49789 9.36232 3.9197 9.04133 3.3774 8.66301L1.93393 7.65418C1.22017 7.1574 1.06465 6.20206 1.58303 5.51804V5.52186ZM5.1638 12.5837L7.58023 14.609L6.54348 16.0306L7.51244 16.9592C8.13449 17.5553 8.13449 18.5221 7.51244 19.1221C6.89039 19.722 5.88155 19.7182 5.25552 19.1221L3.34152 17.2878C2.79124 16.7605 2.71548 15.9351 3.15809 15.3275L5.15982 12.5837H5.1638ZM10.2877 14.609L12.7042 12.5837L14.7059 15.3275C15.1485 15.9351 15.0727 16.7605 14.5265 17.284L12.6125 19.1182C11.9904 19.7144 10.9816 19.7144 10.3555 19.1182C9.72949 18.5221 9.73348 17.5553 10.3555 16.9554L11.3245 16.0268L10.2877 14.6052V14.609Z" fill="#E6F0FD"/>
</g>
<defs>
<clipPath id="clip0_115_210">
<rect width="17.864" height="19.5653" fill="white"/>
</clipPath>
</defs>
</svg>
